<svg xmlns="http://www.w3.org/2000/svg" viewBox="0 0 900 600"><rect x="0" y="0" width="900" height="600" fill="#00008b"/><rect x="0" y="0" width="420" height="300" fill="#012169"/><rect x="0" y="120" width="420" height="60" fill="#fff"/><rect x="180" y="0" width="60" height="300" fill="#fff"/><rect x="0" y="135" width="420" height="30" fill="#c8102e"/><rect x="195" y="0" width="30" height="300" fill="#c8102e"/><polygon points="660.0,90.0 672.9,127.2 712.3,128.0 680.9,151.8 692.3,189.5 660.0,167.0 627.7,189.5 639.1,151.8 607.7,128.0 647.1,127.2" fill="#fff"/><polygon points="560.0,336.0 568.0,359.0 592.3,359.5 572.9,374.2 580.0,397.5 560.0,383.6 540.0,397.5 547.1,374.2 527.7,359.5 552.0,359.0" fill="#fff"/><polygon points="740.0,356.0 748.0,379.0 772.3,379.5 752.9,394.2 760.0,417.5 740.0,403.6 720.0,417.5 727.1,394.2 707.7,379.5 732.0,379.0" fill="#fff"/><polygon points="680.0,466.0 688.0,489.0 712.3,489.5 692.9,504.2 700.0,527.5 680.0,513.6 660.0,527.5 667.1,504.2 647.7,489.5 672.0,489.0" fill="#fff"/></svg>
