<svg xmlns="http://www.w3.org/2000/svg" viewBox="0 0 900 600"><rect x="0" y="0" width="900" height="600" fill="#002f6c"/><polygon points="275,0 780,600 780,0" fill="#f9d616"/><polygon points="235.0,37.0 239.2,49.2 252.1,49.4 241.8,57.2 245.6,69.6 235.0,62.2 224.4,69.6 228.2,57.2 217.9,49.4 230.8,49.2" fill="#fff"/><polygon points="290.0,95.0 294.2,107.2 307.1,107.4 296.8,115.2 300.6,127.6 290.0,120.2 279.4,127.6 283.2,115.2 272.9,107.4 285.8,107.2" fill="#fff"/><polygon points="345.0,153.0 349.2,165.2 362.1,165.4 351.8,173.2 355.6,185.6 345.0,178.2 334.4,185.6 338.2,173.2 327.9,165.4 340.8,165.2" fill="#fff"/><polygon points="400.0,211.0 404.2,223.2 417.1,223.4 406.8,231.2 410.6,243.6 400.0,236.2 389.4,243.6 393.2,231.2 382.9,223.4 395.8,223.2" fill="#fff"/><polygon points="455.0,269.0 459.2,281.2 472.1,281.4 461.8,289.2 465.6,301.6 455.0,294.2 444.4,301.6 448.2,289.2 437.9,281.4 450.8,281.2" fill="#fff"/><polygon points="510.0,327.0 514.2,339.2 527.1,339.4 516.8,347.2 520.6,359.6 510.0,352.2 499.4,359.6 503.2,347.2 492.9,339.4 505.8,339.2" fill="#fff"/><polygon points="565.0,385.0 569.2,397.2 582.1,397.4 571.8,405.2 575.6,417.6 565.0,410.2 554.4,417.6 558.2,405.2 547.9,397.4 560.8,397.2" fill="#fff"/><polygon points="620.0,443.0 624.2,455.2 637.1,455.4 626.8,463.2 630.6,475.6 620.0,468.2 609.4,475.6 613.2,463.2 602.9,455.4 615.8,455.2" fill="#fff"/><polygon points="675.0,501.0 679.2,513.2 692.1,513.4 681.8,521.2 685.6,533.6 675.0,526.2 664.4,533.6 668.2,521.2 657.9,513.4 670.8,513.2" fill="#fff"/></svg>
