<svg xmlns="http://www.w3.org/2000/svg" viewBox="0 0 900 600"><rect x="0" y="0" width="900" height="600" fill="#003893"/><rect x="0" y="340" width="900" height="50" fill="#fff"/><rect x="0" y="390" width="900" height="50" fill="#cf2027"/><rect x="0" y="440" width="900" height="50" fill="#fff"/><polygon points="110.0,321.5 113.8,332.3 125.2,332.6 116.1,339.5 119.4,350.4 110.0,343.9 100.6,350.4 103.9,339.5 94.8,332.6 106.2,332.3" fill="#f7d116"/><polygon points="180.0,321.5 183.8,332.3 195.2,332.6 186.1,339.5 189.4,350.4 180.0,343.9 170.6,350.4 173.9,339.5 164.8,332.6 176.2,332.3" fill="#f7d116"/><polygon points="250.0,321.5 253.8,332.3 265.2,332.6 256.1,339.5 259.4,350.4 250.0,343.9 240.6,350.4 243.9,339.5 234.8,332.6 246.2,332.3" fill="#f7d116"/><polygon points="320.0,321.5 323.8,332.3 335.2,332.6 326.1,339.5 329.4,350.4 320.0,343.9 310.6,350.4 313.9,339.5 304.8,332.6 316.2,332.3" fill="#f7d116"/><polygon points="390.0,321.5 393.8,332.3 405.2,332.6 396.1,339.5 399.4,350.4 390.0,343.9 380.6,350.4 383.9,339.5 374.8,332.6 386.2,332.3" fill="#f7d116"/><polygon points="110.0,366.5 113.8,377.3 125.2,377.6 116.1,384.5 119.4,395.4 110.0,388.9 100.6,395.4 103.9,384.5 94.8,377.6 106.2,377.3" fill="#f7d116"/><polygon points="180.0,366.5 183.8,377.3 195.2,377.6 186.1,384.5 189.4,395.4 180.0,388.9 170.6,395.4 173.9,384.5 164.8,377.6 176.2,377.3" fill="#f7d116"/><polygon points="250.0,366.5 253.8,377.3 265.2,377.6 256.1,384.5 259.4,395.4 250.0,388.9 240.6,395.4 243.9,384.5 234.8,377.6 246.2,377.3" fill="#f7d116"/><polygon points="320.0,366.5 323.8,377.3 335.2,377.6 326.1,384.5 329.4,395.4 320.0,388.9 310.6,395.4 313.9,384.5 304.8,377.6 316.2,377.3" fill="#f7d116"/><polygon points="390.0,366.5 393.8,377.3 405.2,377.6 396.1,384.5 399.4,395.4 390.0,388.9 380.6,395.4 383.9,384.5 374.8,377.6 386.2,377.3" fill="#f7d116"/></svg>
