<svg xmlns="http://www.w3.org/2000/svg" viewBox="0 0 900 600"><rect x="0" y="0.0" width="900" height="23.08" fill="#b22234"/><rect x="0" y="46.15" width="900" height="23.08" fill="#b22234"/><rect x="0" y="92.3" width="900" height="23.08" fill="#b22234"/><rect x="0" y="138.45" width="900" height="23.08" fill="#b22234"/><rect x="0" y="184.6" width="900" height="23.08" fill="#b22234"/><rect x="0" y="230.75" width="900" height="23.08" fill="#b22234"/><rect x="0" y="276.9" width="900" height="23.08" fill="#b22234"/><rect x="0" y="323.05" width="900" height="23.08" fill="#b22234"/><rect x="0" y="369.2" width="900" height="23.08" fill="#b22234"/><rect x="0" y="415.34999999999997" width="900" height="23.08" fill="#b22234"/><rect x="0" y="461.5" width="900" height="23.08" fill="#b22234"/><rect x="0" y="507.65" width="900" height="23.08" fill="#b22234"/><rect x="0" y="553.8" width="900" height="23.08" fill="#b22234"/><rect x="0" y="0" width="380" height="322" fill="#3c3b6e"/><circle cx="40" cy="35" r="9" fill="#fff"/><circle cx="100" cy="35" r="9" fill="#fff"/><circle cx="160" cy="35" r="9" fill="#fff"/><circle cx="220" cy="35" r="9" fill="#fff"/><circle cx="280" cy="35" r="9" fill="#fff"/><circle cx="340" cy="35" r="9" fill="#fff"/><circle cx="40" cy="85" r="9" fill="#fff"/><circle cx="100" cy="85" r="9" fill="#fff"/><circle cx="160" cy="85" r="9" fill="#fff"/><circle cx="220" cy="85" r="9" fill="#fff"/><circle cx="280" cy="85" r="9" fill="#fff"/><circle cx="340" cy="85" r="9" fill="#fff"/><circle cx="40" cy="135" r="9" fill="#fff"/><circle cx="100" cy="135" r="9" fill="#fff"/><circle cx="160" cy="135" r="9" fill="#fff"/><circle cx="220" cy="135" r="9" fill="#fff"/><circle cx="280" cy="135" r="9" fill="#fff"/><circle cx="340" cy="135" r="9" fill="#fff"/><circle cx="40" cy="185" r="9" fill="#fff"/><circle cx="100" cy="185" r="9" fill="#fff"/><circle cx="160" cy="185" r="9" fill="#fff"/><circle cx="220" cy="185" r="9" fill="#fff"/><circle cx="280" cy="185" r="9" fill="#fff"/><circle cx="340" cy="185" r="9" fill="#fff"/><circle cx="40" cy="235" r="9" fill="#fff"/><circle cx="100" cy="235" r="9" fill="#fff"/><circle cx="160" cy="235" r="9" fill="#fff"/><circle cx="220" cy="235" r="9" fill="#fff"/><circle cx="280" cy="235" r="9" fill="#fff"/><circle cx="340" cy="235" r="9" fill="#fff"/></svg>
